<?xml version="1.0" encoding="UTF-8"?>
<svg version="1.1" xmlns="http://www.w3.org/2000/svg" width="510" height="489">
<path d="M0 0 C2.93298342 0.00403504 5.86596483 0.00652331 8.7989502 0.00867462 C25.70364985 0.02262787 42.60823808 0.06902493 59.51285362 0.12128448 C62.12968794 0.12932972 64.74652269 0.13722099 67.36335754 0.1450882 C92.38915575 0.22060599 117.41487026 0.30978373 142.44054222 0.41971779 C144.6166725 0.42927236 146.7928028 0.43882373 148.96893311 0.44837189 C150.58396687 0.4554682 150.58396687 0.4554682 152.23162758 0.46270788 C159.83232443 0.49566813 167.43303016 0.52392818 175.03375244 0.5503006 C184.44004989 0.58307966 193.84628657 0.62303305 203.25251639 0.67156434 C208.13788604 0.69660395 213.02321861 0.71859959 217.90863419 0.73235321 C222.45661684 0.74528629 227.00446595 0.76743921 231.55237412 0.79636598 C233.19717849 0.80530462 234.8420041 0.81109179 236.48683143 0.81318641 C244.92191457 0.82586005 253.25054999 1.1144453 261.6427002 2.00827789 C262.36621233 2.08342947 263.08972446 2.15858105 263.83516121 2.23600996 C282.47723574 4.42516783 299.20326417 13.6254694 312.01428223 27.12897491 C312.52088379 27.58014679 313.02748535 28.03131866 313.54943848 28.49616241 C324.84956319 38.84388482 337.8447217 59.90502713 339.19558716 75.17894745 C339.40904378 82.33359035 337.80960522 88.30625479 335.60412598 95.07038116 C335.245112 96.21116623 334.88609802 97.35195129 334.51620483 98.5273056 C333.5428361 101.61269371 332.55730222 104.69386374 331.56653214 107.7736969 C330.53051466 111.0056641 329.51141518 114.2429474 328.49157715 117.48004913 C327.23804266 121.45614911 325.98351714 125.43191373 324.7223053 129.40558624 C320.99650056 141.14601478 317.35995053 152.91285647 313.76211548 164.69315338 C312.86099182 167.64202609 311.9564288 170.58982362 311.05114746 173.53742218 C309.65001318 178.10494171 308.26504337 182.67715139 306.88690186 187.25165558 C305.93633725 190.38598561 304.96759744 193.51447494 304.00012207 196.64362335 C303.34138855 198.81300935 302.68333216 200.98260109 302.02600098 203.15241241 C301.71000443 204.16050964 301.39400787 205.16860687 301.06843567 206.2072525 C298.96474875 213.10013663 298.96474875 213.10013663 300.01428223 220.12897491 C300.99363778 221.98751308 300.99363778 221.98751308 302.35021973 223.50397491 C303.07265869 224.38206818 303.07265869 224.38206818 303.80969238 225.2779007 C304.33095703 225.88875519 304.85222168 226.49960968 305.38928223 227.12897491 C306.488919 228.45914351 307.58786209 229.78988583 308.68615723 231.12116241 C309.24367676 231.78986359 309.80119629 232.45856476 310.37561035 233.1475296 C312.85107157 236.14080184 315.24778953 239.19348499 317.63928223 242.25397491 C318.08368652 242.82084015 318.52809082 243.38770538 318.98596191 243.97174835 C322.21707718 248.09712713 325.43453291 252.23308403 328.63928223 256.37897491 C329.27857666 257.20292755 329.27857666 257.20292755 329.93078613 258.0435257 C333.38857652 262.53281185 334.14042351 264.64046481 334.16145325 270.31826019 C334.16512994 270.96008151 334.16880662 271.60190283 334.17259473 272.26317328 C334.18364848 274.42393352 334.18747839 276.58464569 334.19128418 278.74542999 C334.19754803 280.29111637 334.20419476 281.83680123 334.2111969 283.38248444 C334.23226557 288.47114763 334.24260831 293.55981119 334.25256348 298.64850616 C334.2566113 300.40216017 334.26072823 302.15581402 334.26491356 303.9094677 C334.28397877 312.15612588 334.29820171 320.40277508 334.30652553 328.64945108 C334.31627509 338.15118176 334.34252905 347.65267807 334.38302642 357.15432626 C334.41327958 364.50652786 334.42800347 371.85866269 334.43130654 379.21092528 C334.43364842 383.5972102 334.44249431 387.98324515 334.46776772 392.36946297 C334.49121201 396.50554011 334.49521673 400.6412057 334.48500633 404.77733231 C334.48451465 406.28607879 334.49072512 407.79484663 334.50456238 409.30352974 C334.62306405 423.00374699 332.76267322 434.93571687 323.01428223 445.12897491 C322.34396973 445.83924835 321.67365723 446.54952179 320.98303223 447.28131866 C312.42484676 455.60694475 302.03164416 459.25067205 290.22688007 459.25760937 C289.55382246 459.2593624 288.88076485 459.26111544 288.18731156 459.2629216 C285.92773569 459.26758049 283.66822419 459.26511638 281.40864563 459.26268768 C279.773911 459.26455572 278.13917682 459.26685639 276.50444335 459.26955301 C272.00861634 459.27567848 267.5128079 459.27553653 263.01697767 459.27435863 C258.16951864 459.27415481 253.32206562 459.27967165 248.47460938 459.2844162 C238.97555779 459.29272772 229.47651241 459.29547128 219.9774575 459.29602858 C212.25597894 459.29650356 204.53450243 459.29855742 196.81302452 459.3017292 C174.92422208 459.31053763 153.03542454 459.31514836 131.14662031 459.31439873 C129.96623732 459.31435877 128.78585432 459.31431882 127.56970215 459.31427765 C126.3878787 459.31423677 125.20605524 459.31419589 123.98841896 459.31415377 C104.83839941 459.31374738 85.68839953 459.32331454 66.53838567 459.33741602 C46.87822194 459.35177895 27.21806781 459.35868622 7.5578987 459.35782224 C-3.48089669 459.35749021 -14.51967147 459.36023978 -25.55846214 459.37100029 C-34.95820961 459.38010426 -44.35792713 459.38228143 -53.7576771 459.37549087 C-58.55277762 459.37222498 -63.34782067 459.37217148 -68.14291573 459.38084412 C-72.53556188 459.38870706 -76.92810497 459.38727974 -81.3207486 459.37855998 C-82.90690432 459.37702453 -84.49306771 459.37884285 -86.07921436 459.38442006 C-101.37635332 459.43463026 -115.6749944 457.8586682 -127.39587402 446.88288116 C-139.36154134 433.68242754 -140.1378854 420.50622013 -140.13098145 403.39459991 C-140.13397753 401.90888129 -140.13738109 400.42316344 -140.14115906 398.93744659 C-140.14995508 394.92097815 -140.15233524 390.90453104 -140.15297484 386.88805389 C-140.15368757 384.3753004 -140.15582603 381.86255227 -140.15847206 379.34980011 C-140.16770919 370.57436531 -140.17180878 361.79894566 -140.17102051 353.02350616 C-140.17041936 344.85736761 -140.18098258 336.69129504 -140.19676417 328.52517319 C-140.20985489 321.49988877 -140.2152038 314.47462589 -140.2145651 307.44932938 C-140.21431067 303.25955378 -140.2171318 299.06983694 -140.22774315 294.88007355 C-140.23745057 290.94018177 -140.23748526 287.00040464 -140.23022652 283.06050873 C-140.22918413 281.61900921 -140.23152292 280.17750246 -140.23758698 278.73601532 C-140.30986262 260.35807353 -140.30986262 260.35807353 -134.23571777 252.75397491 C-133.03688965 251.21676788 -133.03688965 251.21676788 -131.81384277 249.64850616 C-130.33049633 247.79325287 -128.83736393 245.94643634 -127.3392334 244.10309601 C-120.30736188 235.43531037 -113.95084025 227.01691016 -108.98815918 216.98639679 C-106.51274582 211.98589622 -103.6607576 207.62952332 -100.10290527 203.30475616 C-98.24814387 199.69251105 -99.63649522 196.26242339 -100.79122925 192.51457977 C-101.27107773 191.20016655 -101.27107773 191.20016655 -101.76062012 189.85919952 C-102.12584778 188.85107712 -102.49107544 187.84295471 -102.86737061 186.80428314 C-103.26478455 185.72420486 -103.66219849 184.64412659 -104.07165527 183.53131866 C-104.48453796 182.39714005 -104.89742065 181.26296143 -105.32281494 180.09441376 C-106.43411508 177.04582855 -107.5501659 173.99903928 -108.66867828 170.95309448 C-109.59434494 168.42956677 -110.51585195 165.90452848 -111.43742943 163.37950516 C-116.24109424 150.22066539 -121.09296129 137.08276525 -126.11071777 124.00397491 C-129.48413776 115.17039515 -132.81976936 106.32413525 -135.98931885 97.41516876 C-136.64560145 95.58115027 -137.31847961 93.75309598 -137.99206543 91.92536163 C-141.69409945 81.37994423 -142.43894402 72.7602776 -138.04821777 62.37897491 C-137.73465332 61.61311066 -137.42108887 60.8472464 -137.09802246 60.05817413 C-131.5225148 46.89332686 -124.12753524 36.15521612 -113.98571777 26.12897491 C-113.1839209 25.31686554 -112.38212402 24.50475616 -111.55603027 23.66803741 C-105.07047603 17.43765251 -97.90346099 13.24732713 -89.98571777 9.12897491 C-89.22774902 8.71776398 -88.46978027 8.30655304 -87.68884277 7.88288116 C-76.46702216 2.29371857 -64.16314334 0.88004003 -51.80993652 0.52350616 C-50.59583099 0.48512634 -49.38172546 0.44674652 -48.13082886 0.40720367 C-32.09019372 -0.04721343 -16.0457191 -0.02344073 0 0 Z " fill="#3D2F23" transform="translate(155.9857177734375,10.871025085449219)"/>
<path d="M0 0 C32.10808393 -0.28212124 32.10808393 -0.28212124 45.5625 -0.34179688 C54.85281418 -0.38333393 64.14268397 -0.43216433 73.43261719 -0.52807617 C80.19848747 -0.59789553 86.96399729 -0.64301884 93.73021781 -0.65861946 C97.31238106 -0.66773777 100.89351322 -0.68913005 104.47534561 -0.7401104 C108.47637709 -0.79659413 112.47562185 -0.79792628 116.47705078 -0.79467773 C117.6617244 -0.81984467 118.84639801 -0.8450116 120.06697083 -0.87094116 C127.9466664 -0.80161194 127.9466664 -0.80161194 131.02373886 1.54011345 C132.52646034 3.2898957 133.75456809 5.06371083 135 7 C145.95727235 16.79400028 160.18121137 20.38633259 174.57421875 20.20703125 C190.01885389 19.27366105 203.29182708 11.87147839 214 1 C215 0 215 0 217.13768864 -0.12304783 C218.0880572 -0.12212604 219.03842577 -0.12120424 220.01759338 -0.12025452 C221.10439392 -0.12162918 222.19119446 -0.12300385 223.31092834 -0.12442017 C224.51357834 -0.12082489 225.71622833 -0.11722961 226.95532227 -0.11352539 C228.21367889 -0.11367142 229.47203552 -0.11381744 230.76852417 -0.1139679 C234.22911253 -0.11425585 237.68966652 -0.10835949 241.15024686 -0.10139394 C244.76308091 -0.09516003 248.37591567 -0.09455657 251.98875427 -0.09336853 C258.83463508 -0.09025532 265.6805 -0.08204208 272.5263738 -0.07201904 C281.77405577 -0.05877223 291.02174206 -0.05335791 300.26943111 -0.04751682 C314.84629932 -0.03810218 329.42313399 -0.0181832 344 0 C344 25.74 344 51.48 344 78 C230.48 78 116.96 78 0 78 C0 52.26 0 26.52 0 0 Z " fill="#985E33" transform="translate(82,370)"/>
<path d="M0 0 C113.52 0 227.04 0 344 0 C337.39704577 28.81289116 330.77393408 57.6021018 323.85693359 86.33862305 C323.18267192 89.2195069 322.55386686 92.09414923 322 95 C320.80246094 94.9278125 319.60492188 94.855625 318.37109375 94.78125 C314.09390898 94.5309751 309.8156366 94.32045179 305.53564453 94.12451172 C303.25996103 94.01276527 300.9884212 93.86991287 298.71484375 93.72265625 C290.10666908 93.36361743 285.43898371 94.29566544 279 100 C277.89261365 100.93984819 276.78306643 101.87715368 275.671875 102.8125 C273.91059578 104.29589926 272.15726135 105.78415881 270.42724609 107.30395508 C267.9535055 109.46387413 266.15058567 110.94980478 263 112 C262.98582031 111.2265625 262.97164063 110.453125 262.95703125 109.65625 C262.66050424 103.18074124 261.9660021 98.77021245 258.05859375 93.5234375 C257 92 257 92 257 90 C256.01 89.67 255.02 89.34 254 89 C254 88.34 254 87.68 254 87 C253.01 86.67 252.02 86.34 251 86 C251 85.34 251 84.68 251 84 C250.45794922 83.78537109 249.91589844 83.57074219 249.35742188 83.34960938 C246.16756786 81.52343777 243.81653813 79.02345631 241.28125 76.40625 C240.74149536 75.85892212 240.20174072 75.31159424 239.64562988 74.74768066 C237.34384937 72.41328619 235.0541159 70.06720157 232.76318359 67.72216797 C231.08580924 66.00860842 229.4024585 64.30108244 227.71875 62.59375 C227.20509888 62.0635022 226.69144775 61.53325439 226.16223145 60.98693848 C221.52743312 56.28930582 218.81332254 54.79316699 212.1335144 54.67340088 C211.35630035 54.66959412 210.5790863 54.66578735 209.77832031 54.66186523 C208.53850906 54.64456108 208.53850906 54.64456108 207.27365112 54.62690735 C204.54178973 54.59262494 201.81015418 54.57410281 199.078125 54.55859375 C198.14297813 54.55169085 197.20783127 54.54478794 196.24434662 54.53767586 C191.29440646 54.50185092 186.34458012 54.47830673 181.39453125 54.46459961 C176.29201117 54.44806 171.19087901 54.38964492 166.08882523 54.32145596 C162.15615686 54.27659141 158.22381876 54.26309925 154.29091644 54.25798225 C152.41066675 54.25010523 150.53042686 54.23051032 148.65042877 54.19875908 C137.24622572 53.54421872 137.24622572 53.54421872 127.27758789 58.06640625 C126.15141134 59.34882062 125.05810583 60.66086883 124 62 C122.71753117 63.25752742 121.42038655 64.50023622 120.11010742 65.72875977 C118.77236444 67.04674187 117.43757908 68.36773137 116.10546875 69.69140625 C115.39143387 70.39974106 114.67739899 71.10807587 113.94172668 71.83787537 C112.44716075 73.32306887 110.95398588 74.80966345 109.4621582 76.29760742 C107.18300553 78.56697518 104.89339955 80.82545195 102.60351562 83.08398438 C101.1451767 84.53579905 99.68747194 85.98825108 98.23046875 87.44140625 C97.20858711 88.44476768 97.20858711 88.44476768 96.1660614 89.46839905 C91.00664256 94.65221599 87.58123865 99.22684109 87.5 106.8125 C87.68865528 114.8055264 91.30830274 119.83612794 96 126 C92.71766112 126.17275468 90.97890288 126.22629747 88 125 C85.93585248 122.52211366 84.44206409 119.91471509 82.83984375 117.1171875 C78.12373786 109.1268425 72.1853465 102.62474331 64.65234375 97.2421875 C64.10707031 96.83226562 63.56179687 96.42234375 63 96 C63 95.67 63 95.34 63 95 C60.90819492 94.30273164 58.81535767 93.60847294 56.71875 92.92578125 C54.95209322 92.32420416 53.19987693 91.67772821 51.46875 90.98046875 C41.62588761 87.20454309 31.42187513 86.73500337 21 86 C18.23031774 75.68970796 15.53045233 65.36375787 12.890625 55.01953125 C12.70673973 54.29909826 12.52285446 53.57866528 12.33339691 52.83640099 C11.36613576 49.04544132 10.4001552 45.25415773 9.43505859 41.46264648 C8.6404812 38.34217814 7.84312934 35.22243799 7.04345703 32.10327148 C6.06853035 28.30045699 5.0982516 24.49648565 4.13134003 20.6916256 C3.76455692 19.25152099 3.3961512 17.81182862 3.02606964 16.37256813 C2.51192871 14.37163852 2.00378666 12.36927573 1.49707031 10.36645508 C1.06216278 8.66227165 1.06216278 8.66227165 0.61846924 6.92366028 C0 4 0 4 0 0 Z " fill="#694228" transform="translate(86,100)"/>
<path d="M0 0 C1.51679959 -0.0083016 1.51679959 -0.0083016 3.06424159 -0.0167709 C6.46297189 -0.03041713 9.8609729 -0.01538601 13.25968933 -0.00050354 C15.69224358 -0.00428533 18.12479568 -0.0097842 20.55734253 -0.01687622 C26.48551273 -0.02941413 32.41348881 -0.02324431 38.34163693 -0.00820064 C45.24651502 0.00865465 52.15134 0.00544965 59.0562323 0.00170528 C71.37930265 -0.00417552 83.70227089 0.01000505 96.02531433 0.03465271 C107.97880383 0.05855849 119.93215679 0.06566335 131.88566589 0.05516052 C144.90211049 0.04374424 157.91849191 0.04183123 170.93493575 0.05625862 C172.32379797 0.05778444 173.71266021 0.0593048 175.10152245 0.06081963 C176.12652406 0.06195635 176.12652406 0.06195635 177.17223278 0.06311603 C181.98303426 0.06785461 186.79380749 0.06601034 191.60460854 0.06175423 C198.08476851 0.05630509 204.56478148 0.06709739 211.04490852 0.08870888 C213.42371229 0.09427399 215.80253422 0.09474459 218.18133926 0.08975601 C221.42815017 0.08380111 224.67438367 0.09631317 227.92114258 0.11352539 C228.86297939 0.10751535 229.80481619 0.1015053 230.77519351 0.09531313 C237.50156641 0.16016721 242.56336129 1.01288711 247.592453 5.84886169 C254.24916948 14.36896842 259.58024342 22.53148207 263.46354675 32.62620544 C263.7183783 33.28322449 263.97320984 33.94024353 264.23576355 34.61717224 C264.47206482 35.26210632 264.70836609 35.90704041 264.951828 36.57151794 C265.26374084 37.41867371 265.26374084 37.41867371 265.58195496 38.28294373 C266.43829221 41.62085891 266.7236217 45.08180504 267.15104675 48.50120544 C167.82104675 48.50120544 68.49104675 48.50120544 -33.84895325 48.50120544 C-33.84895325 31.46119213 -24.91252713 16.91252378 -13.84895325 4.50120544 C-13.34777638 3.80183333 -12.84659952 3.10246122 -12.33023548 2.38189602 C-8.46837905 -0.54520228 -4.72122478 -0.04780813 0 0 Z " fill="#995E33" transform="translate(137.8489532470703,30.498794555664063)"/>
<path d="M0 0 C2.52883148 -0.00830133 5.05517716 -0.051514 7.58351135 -0.10064697 C37.3601207 -0.53499343 37.3601207 -0.53499343 48.33628845 9.6630249 C51.30179373 12.8616837 53.98879986 16.18852102 56.585495 19.69104004 C59.45381196 23.28369198 62.89180434 26.07750223 66.42225647 28.99163818 C68.06679456 30.55466855 69.69580661 32.13448922 71.29725647 33.74163818 C72.40713928 34.84765381 72.40713928 34.84765381 73.53944397 35.97601318 C75.82702479 38.42495862 77.27604257 40.30930665 77.98475647 43.61663818 C76.29860974 53.73351857 64.15999832 62.7760957 57.31044006 69.99456787 C54.53372406 72.93140999 51.78667877 75.89503124 49.04725647 78.86663818 C48.55652649 79.39869873 48.06579651 79.93075928 47.56019592 80.47894287 C43.93231482 84.42055679 40.34808069 88.39989987 36.77381897 92.39007568 C33.49705103 96.01520433 30.17595888 99.59886628 26.84608459 103.17523193 C26.37364319 103.68441162 25.90120178 104.19359131 25.41444397 104.71820068 C24.92435852 105.23285889 24.43427307 105.74751709 23.92933655 106.277771 C22.35131942 108.00325009 22.35131942 108.00325009 20.95228577 110.13519287 C18.47620635 113.55231185 16.72372055 115.64429997 12.55897522 116.75579834 C9.16536379 117.06958414 5.89095562 117.08364581 2.48475647 116.99163818 C1.34329163 117.02257568 0.20182678 117.05351318 -0.97422791 117.08538818 C-7.06117063 117.02912528 -10.77396075 116.53666316 -15.19102478 112.15960693 C-16.35022511 110.79545808 -17.48111797 109.40657983 -18.57774353 107.99163818 C-19.65568928 106.75774404 -20.73824018 105.52783923 -21.82774353 104.30413818 C-22.67465759 103.31993896 -22.67465759 103.31993896 -23.53868103 102.31585693 C-26.12527803 99.36753277 -28.78614249 96.49252309 -31.45274353 93.61663818 C-36.54570717 88.12012292 -41.57850033 82.57367112 -46.57774353 76.99163818 C-48.07730972 75.32458119 -49.57731406 73.65791823 -51.07774353 71.99163818 C-52.18955994 70.75413818 -52.18955994 70.75413818 -53.32383728 69.49163818 C-54.83112089 67.81978115 -56.34419501 66.15312716 -57.86289978 64.49163818 C-60.12316224 62.01038951 -62.35348137 59.5051717 -64.57774353 56.99163818 C-65.36278259 56.1318335 -66.14782166 55.27202881 -66.95664978 54.38616943 C-72.44704035 48.07460741 -72.44704035 48.07460741 -73.01524353 43.36663818 C-71.69706056 40.27177382 -70.85579139 39.05867312 -68.62852478 36.71820068 C-65.78415177 33.59861206 -63.56095158 30.3920442 -61.3815918 26.77957153 C-46.28977677 2.6102267 -26.52942083 0.01964309 0 0 Z " fill="#2A8ABA" transform="translate(258.57774353027344,163.00836181640625)"/>
<path d="M0 0 C38.28 0 76.56 0 116 0 C116 20.79 116 41.58 116 63 C75.74 63 35.48 63 -6 63 C-5.10280651 58.51403257 -3.96862428 54.20971433 -2.71875 49.81640625 C1.43769811 33.52945467 -0.41327941 16.94445569 0 0 Z " fill="#995E33" transform="translate(310,297)"/>
<path d="M0 0 C37.95 0 75.9 0 115 0 C115.33 13.86 115.66 27.72 116 42 C117.32 47.28 118.64 52.56 120 58 C120.495 60.475 120.495 60.475 121 63 C81.07 63 41.14 63 0 63 C0 42.21 0 21.42 0 0 Z " fill="#995E34" transform="translate(82,297)"/>
<path d="M0 0 C15.5106598 -0.54663118 28.67360415 4.72463095 40.046875 15.2265625 C50.98782564 26.66897337 55.38011317 40.69419156 55.14453125 56.25390625 C54.67001465 64.63703283 52.21735257 71.49805233 48.921875 79.1875 C18.561875 79.1875 -11.798125 79.1875 -43.078125 79.1875 C-49.67502373 63.35494305 -52.87292503 50.71585009 -47.078125 34.1875 C-40.93840294 19.84180325 -30.0865228 9.52541787 -15.890625 3.3125 C-10.46979058 1.21699367 -5.79336743 0.35289548 0 0 Z " fill="#F8C525" transform="translate(110.078125,200.8125)"/>
<path d="M0 0 C26.73 0 53.46 0 81 0 C81.061875 6.6825 81.12375 13.365 81.1875 20.25 C81.22846802 23.3751709 81.22846802 23.3751709 81.27026367 26.56347656 C81.39235674 42.3616502 79.83799232 55.53027441 68.875 67.75 C59.78941785 76.3082939 48.89691457 78.5136027 36.859375 78.27734375 C27.06149029 77.57324475 17.80873912 73.04679551 11.02734375 65.9296875 C2.74821056 55.84004324 -0.34753968 44.91422403 -0.1953125 32.03125 C-0.19329834 31.21366211 -0.19128418 30.39607422 -0.18920898 29.55371094 C-0.1788428 26.5357492 -0.15092118 23.51786822 -0.125 20.5 C-0.08375 13.735 -0.0425 6.97 0 0 Z " fill="#F5C524" transform="translate(213,297)"/>
<path d="M0 0 C0.85089203 0.09111557 1.70178406 0.18223114 2.57846069 0.27610779 C5.29294439 0.57349208 8.00107047 0.9094718 10.7109375 1.24609375 C12.50883931 1.44713864 14.30701726 1.64573001 16.10546875 1.84179688 C20.36071475 2.31436823 24.60676034 2.839466 28.85168457 3.39678955 C30.86307682 3.65498581 32.87819093 3.88378005 34.89355469 4.10888672 C36.48538574 4.31408936 36.48538574 4.31408936 38.109375 4.5234375 C38.99286621 4.62906006 39.87635742 4.73468262 40.78662109 4.84350586 C44.86651946 6.33415465 46.53175057 9.57736512 48.41040039 13.32739258 C48.9787561 14.71994263 48.9787561 14.71994263 49.55859375 16.140625 C49.98333984 17.17123047 50.40808594 18.20183594 50.84570312 19.26367188 C51.27560547 20.33037109 51.70550781 21.39707031 52.1484375 22.49609375 C52.58220703 23.55119141 53.01597656 24.60628906 53.46289062 25.69335938 C54.68702204 28.68381741 55.89224111 31.68087208 57.0859375 34.68359375 C57.4051416 35.48410156 57.7243457 36.28460938 58.05322266 37.109375 C59.92609944 41.92945765 60.81377063 44.67287766 59.0859375 49.68359375 C56.32819721 53.25692107 53.22344096 56.44471699 50.0859375 59.68359375 C48.8053 61.13332513 47.53342817 62.59088227 46.2734375 64.05859375 C45.22309497 65.27750977 44.16058679 66.48605269 43.0859375 67.68359375 C42.52146912 68.37112732 41.95700073 69.05866089 41.37542725 69.76702881 C38.37912748 72.27527463 36.72229392 72.1686846 32.84863281 72.13769531 C31.58762756 72.13739319 30.32662231 72.13709106 29.02740479 72.13677979 C27.65628424 72.1163548 26.28517017 72.09549084 24.9140625 72.07421875 C23.50731206 72.06675492 22.10055119 72.06106265 20.69378662 72.05706787 C16.99785468 72.04182235 13.30255523 72.00255106 9.60687256 71.95825195 C5.83305415 71.91727518 2.05913318 71.89905179 -1.71484375 71.87890625 C-9.11487114 71.83605474 -16.51437807 71.7678178 -23.9140625 71.68359375 C-24.11032227 70.59167725 -24.30658203 69.49976074 -24.50878906 68.37475586 C-24.77389799 66.92428157 -25.03920813 65.47384404 -25.3046875 64.0234375 C-25.43311035 63.3058728 -25.5615332 62.58830811 -25.69384766 61.84899902 C-27.79209198 50.45527167 -32.19265592 40.58176327 -41.8515625 33.62109375 C-43.3675 32.66203125 -43.3675 32.66203125 -44.9140625 31.68359375 C-41.22495378 26.72237858 -36.91162026 23.10559115 -32.09375 19.25390625 C-27.92896702 15.91628447 -23.90289498 12.41815801 -19.86157227 8.93310547 C-19.30526123 8.45373535 -18.7489502 7.97436523 -18.17578125 7.48046875 C-17.69069092 7.06120117 -17.20560059 6.64193359 -16.70581055 6.20996094 C-16.11453369 5.70625977 -15.52325684 5.20255859 -14.9140625 4.68359375 C-14.04064209 3.79438232 -13.16722168 2.9051709 -12.26733398 1.98901367 C-8.33675032 -1.25756328 -4.83031399 -0.64114007 0 0 Z " fill="#F7C623" transform="translate(386.9140625,207.31640625)"/>
<path d="M0 0 C5.76093963 2.71103041 7.72413879 6.35392729 10 12 C10.43892578 13.23556641 10.43892578 13.23556641 10.88671875 14.49609375 C13.1159246 20.67579097 15.46892701 25.23849978 21 29 C24.56786405 30.65171358 28.10103312 32.09333607 31.79296875 33.4453125 C35.92149918 35.44671946 37.9692339 37.9384678 40 42 C40.60571476 47.20914692 39.20237502 50.93667766 36 55 C33.67630328 56.7558877 31.19984292 57.96808338 28.5625 59.1875 C21.11038286 62.78532646 15.51943456 66.11214447 12 74 C11.52552395 75.53677521 11.06752865 77.07872255 10.625 78.625 C9.45436239 82.22933158 8.14309092 84.89179772 4.9375 87.17578125 C0.66323606 88.99406692 -3.51248984 89.00767444 -8 88 C-13.9424228 84.4087097 -16.44859595 76.27804782 -19.19140625 70.20703125 C-22.4104012 64.499051 -26.45653072 62.58979779 -32.5 60.5 C-37.68996034 58.70534082 -41.94375337 56.74166217 -45.3125 52.25 C-46.71021989 47.67564398 -46.68384327 43.58363705 -44.8125 39.25 C-41.25448302 34.83315133 -38.05243701 32.95982506 -32.6875 31.3125 C-26.29716284 29.06771131 -22.53894656 25.76807612 -19 20 C-17.6150869 16.43594411 -16.44536986 12.83684656 -15.26953125 9.19921875 C-12.47892114 2.16688126 -7.69999557 -1.3999992 0 0 Z " fill="#3D2E23" transform="translate(152,106)"/>
<path d="M0 0 C8.25 0 16.5 0 25 0 C25.090374 17.72442634 25.16402474 35.44865535 25.20724869 53.17324829 C25.2278538 61.40350609 25.25593498 69.63361032 25.30175781 77.86376953 C25.34168862 85.03910649 25.36744773 92.2143322 25.37635398 99.38977718 C25.38155822 103.18743096 25.39374677 106.98476655 25.42292023 110.78231812 C25.45018837 114.3610435 25.45842227 117.93932139 25.45243073 121.51814079 C25.4540458 123.44896546 25.47550881 125.37974203 25.49768066 127.31044006 C25.46439591 134.35482865 24.83161789 139.02621054 21 145 C18.96484375 146.83984375 18.96484375 146.83984375 16.9375 147.9375 C16.26589844 148.31777344 15.59429687 148.69804687 14.90234375 149.08984375 C9.39159699 151.72640226 7.22051312 151 0 151 C0 101.17 0 51.34 0 0 Z " fill="#995E34" transform="translate(443,297)"/>
<path d="M0 0 C8.25 0 16.5 0 25 0 C25 49.83 25 99.66 25 151 C14.90921361 151 11.00034197 149.19675793 3.69921875 142.9140625 C0.30505847 139.09075552 -0.24972049 135.22364308 -0.24050903 130.23564148 C-0.24325836 129.08444321 -0.24600769 127.93324493 -0.24884033 126.74716187 C-0.24164978 125.49343781 -0.23445923 124.23971375 -0.22705078 122.94799805 C-0.22648631 121.60737619 -0.22680392 120.26675371 -0.22793579 118.9261322 C-0.22850892 115.29425831 -0.21676116 111.66251689 -0.20278788 108.03067374 C-0.19027381 104.23235482 -0.18910948 100.43403277 -0.18673706 96.63569641 C-0.18052428 89.44639232 -0.1641162 82.25714915 -0.14403808 75.06787187 C-0.1216728 66.88170501 -0.11068407 58.69553522 -0.10064721 50.50934541 C-0.07974978 33.67285567 -0.04307608 16.83644983 0 0 Z " fill="#985E33" transform="translate(39,297)"/>
<path d="M0 0 C15.5106598 -0.54663118 28.67360415 4.72463095 40.046875 15.2265625 C50.98782564 26.66897337 55.38011317 40.69419156 55.14453125 56.25390625 C54.67001465 64.63703283 52.21735257 71.49805233 48.921875 79.1875 C18.561875 79.1875 -11.798125 79.1875 -43.078125 79.1875 C-49.67502373 63.35494305 -52.87292503 50.71585009 -47.078125 34.1875 C-40.93840294 19.84180325 -30.0865228 9.52541787 -15.890625 3.3125 C-10.46979058 1.21699367 -5.79336743 0.35289548 0 0 Z M-33.078125 25.1875 C-35.48442404 28.38001556 -37.38297119 31.57117187 -39.078125 35.1875 C-39.58279297 36.2084375 -39.58279297 36.2084375 -40.09765625 37.25 C-44.75955137 48.48963754 -42.6502673 60.3554867 -38.30102539 71.22290039 C-37.07088462 74.44134597 -37.07088462 74.44134597 -35.078125 77.1875 C-33.5894064 77.27419432 -32.09668 77.29453494 -30.60546875 77.28515625 C-29.25678711 77.28032227 -29.25678711 77.28032227 -27.88085938 77.27539062 C-26.93533203 77.26701172 -25.98980469 77.25863281 -25.015625 77.25 C-23.5915332 77.24323242 -23.5915332 77.24323242 -22.13867188 77.23632812 C-19.78509435 77.2245011 -17.43164023 77.20802025 -15.078125 77.1875 C-15.56539062 76.58164062 -16.05265625 75.97578125 -16.5546875 75.3515625 C-18.4135642 72.71100432 -18.57785591 71.35246245 -18.078125 68.1875 C-14.8024333 66.00370554 -13.87741971 65.64474361 -10.078125 66.1875 C-7.453125 68.125 -7.453125 68.125 -5.078125 70.1875 C-0.75052986 71.63003171 3.3992636 71.74202401 7.921875 71.1875 C11.00879077 69.39232277 11.00879077 69.39232277 12.921875 67.1875 C12.97355027 64.76482914 12.97355027 64.76482914 11.921875 62.1875 C8.61511933 60.30866155 5.47471073 59.3402938 1.8125 58.328125 C-6.07146139 56.11189622 -12.2117724 54.04783702 -16.515625 46.75 C-17.72907923 41.22204182 -17.66158311 36.82262797 -14.62890625 31.87109375 C-12.63479594 29.70620322 -10.47563031 28.58170172 -7.890625 27.1875 C-4.35107744 25.39321677 -4.35107744 25.39321677 -2.20703125 22.2578125 C-1.8725943 20.12234176 -1.8725943 20.12234176 -2.078125 17.1875 C-0.07857754 17.14495644 1.92229136 17.14669217 3.921875 17.1875 C5.89010386 19.15572886 5.58435881 22.53558709 5.921875 25.1875 C6.93507813 25.56841797 6.93507813 25.56841797 7.96875 25.95703125 C8.86078125 26.30121094 9.7528125 26.64539063 10.671875 27 C11.55359375 27.33644531 12.4353125 27.67289063 13.34375 28.01953125 C15.88615892 29.17131953 17.84749732 30.32342789 19.921875 32.1875 C20.296875 34.75 20.296875 34.75 19.921875 37.1875 C19.261875 37.8475 18.601875 38.5075 17.921875 39.1875 C14.24016508 38.97910133 11.65526434 38.66999299 8.546875 36.625 C4.83486943 34.59223505 1.07546235 34.39411815 -3.078125 35.1875 C-4.93084866 36.41476865 -4.93084866 36.41476865 -6.078125 38.1875 C-5.84529351 41.33671909 -5.84529351 41.33671909 -5.078125 44.1875 C0.18864336 46.12685209 5.44610196 48.05363351 10.796875 49.75 C15.51382977 51.3335491 18.86443247 52.61956797 21.734375 56.875 C23.66299047 62.25482209 23.73253104 66.28422061 21.484375 71.5625 C20.96875 72.42875 20.453125 73.295 19.921875 74.1875 C19.591875 74.8475 19.261875 75.5075 18.921875 76.1875 C29.811875 76.6825 29.811875 76.6825 40.921875 77.1875 C41.72625 75.455 42.530625 73.7225 43.359375 71.9375 C43.81183594 70.96296875 44.26429688 69.9884375 44.73046875 68.984375 C48.54953302 60.0189651 48.47480001 47.37842835 45.296875 38.1875 C44.55446248 36.4983175 43.76272269 34.82990344 42.921875 33.1875 C42.28572266 31.89779297 42.28572266 31.89779297 41.63671875 30.58203125 C36.61302041 21.33226912 28.67870877 14.22805074 18.921875 10.1875 C-1.34651663 4.21499588 -19.02980576 9.4927263 -33.078125 25.1875 Z " fill="#EDAD15" transform="translate(110.078125,200.8125)"/>
<path d="M0 0 C17.49 0 34.98 0 53 0 C49.62434326 11.25218914 49.62434326 11.25218914 47.3984375 16.765625 C46.91213867 17.97589355 46.42583984 19.18616211 45.92480469 20.43310547 C45.40833655 21.70545781 44.89173242 22.97775496 44.375 24.25 C43.84244355 25.57034225 43.31022067 26.89081909 42.77832031 28.21142578 C41.19248744 32.14377997 39.59779754 36.07249417 38 40 C37.52530273 41.16692383 37.05060547 42.33384766 36.56152344 43.53613281 C34.05243216 49.69547114 31.53164266 55.84989838 29 62 C33.95 61.505 33.95 61.505 39 61 C39.34466309 60.05890381 39.68932617 59.11780762 40.04443359 58.14819336 C43.67870889 48.30051795 47.58060766 38.5853315 51.64160156 28.90649414 C52.63395378 26.54115809 53.62199794 24.17405727 54.609375 21.80664062 C55.25235852 20.26812648 55.89557912 18.72971139 56.5390625 17.19140625 C56.82770172 16.50059464 57.11634094 15.80978302 57.41372681 15.09803772 C59.54113697 10.03105774 61.76675232 5.02480729 64 0 C74.56 0 85.12 0 96 0 C94.41750988 3.16498024 93.47786627 4.78501402 91.1640625 7.21484375 C90.31847778 8.1107019 90.31847778 8.1107019 89.45581055 9.0246582 C88.85164307 9.655896 88.24747559 10.28713379 87.625 10.9375 C86.35253874 12.28354621 85.08040912 13.629906 83.80859375 14.9765625 C83.16905762 15.65106445 82.52952148 16.32556641 81.87060547 17.02050781 C79.12055539 19.93063651 76.40110346 22.86841278 73.6875 25.8125 C73.19330566 26.3480249 72.69911133 26.8835498 72.18994141 27.43530273 C68.54367873 31.39324829 64.94221355 35.38996524 61.3515625 39.3984375 C59.58594991 41.35175641 57.81110923 43.29360697 56.0234375 45.2265625 C55.50676514 45.78577393 54.99009277 46.34498535 54.45776367 46.92114258 C53.40839732 48.05079363 52.35390745 49.17570831 51.29418945 50.2956543 C49.07056698 52.66097647 47.05205544 54.92435516 45.20703125 57.60546875 C43.55426495 60.00601621 42.44315365 61.39278866 40 63 C37.32339712 63.22880782 34.92954101 63.30300186 32.26953125 63.19921875 C31.57073853 63.18483765 30.8719458 63.17045654 30.15197754 63.15563965 C28.43427581 63.11821855 26.71702426 63.06105152 25 63 C24.39696045 61.50726563 24.39696045 61.50726563 23.78173828 59.984375 C21.89776983 55.32226449 20.01156294 50.66106112 18.125 46 C17.78596649 45.16197845 17.44693298 44.32395691 17.09762573 43.46054077 C12.41214776 31.88330597 7.68467719 20.3270591 2.79541016 8.83398438 C2.42077637 7.94646484 2.04614258 7.05894531 1.66015625 6.14453125 C1.33668213 5.38503174 1.01320801 4.62553223 0.67993164 3.84301758 C0 2 0 2 0 0 Z " fill="#55B1D8" transform="translate(234,216)"/>
<path d="M0 0 C9.9 0 19.8 0 30 0 C31.33136794 3.99410382 32.51362497 7.80926647 33.5246582 11.87158203 C33.95069084 13.57593918 33.95069084 13.57593918 34.3853302 15.31472778 C34.68742905 16.53344574 34.98952789 17.7521637 35.30078125 19.0078125 C35.61903366 20.28365204 35.93728607 21.55949158 36.2651825 22.87399292 C37.11197834 26.26879104 37.9559568 29.66428335 38.79931641 33.05993652 C39.80552645 37.10895063 40.81518258 41.15710656 41.8243084 45.20539474 C42.64059113 48.48075056 43.4558763 51.75634776 44.26882935 55.03253174 C45.69472184 60.77562922 47.1270144 66.51658055 48.59521484 72.24902344 C48.83201462 73.1782663 49.06881439 74.10750916 49.31278992 75.06491089 C49.74239868 76.74735293 50.17570607 78.42885713 50.61360168 80.10916138 C51.49029645 83.55210909 52 86.4200719 52 90 C50.10667466 90.81832722 48.21022267 91.62942268 46.3125 92.4375 C45.25675781 92.88996094 44.20101562 93.34242188 43.11328125 93.80859375 C40.36934199 94.85865833 37.87432257 95.46945417 35 96 C34.484375 94.625 33.96875 93.25 33.453125 91.875 C33.10878418 90.95686523 32.76444336 90.03873047 32.40966797 89.09277344 C31.62194902 86.99196847 30.83452446 84.89105309 30.04736328 82.79003906 C27.95225686 77.19934114 25.85405835 71.60987605 23.74617004 66.02398682 C18.27910607 51.53518877 12.85348577 37.04298495 7.82519531 22.39453125 C6.25565366 17.84007429 4.65627874 13.29601818 3.0625 8.75 C2.051875 5.8625 1.04125 2.975 0 0 Z " fill="#674127" transform="translate(41,100)"/>
<path d="M0 0 C8.58 0 17.16 0 26 0 C21.32787478 15.63864135 16.62918852 31.2671311 11.81274414 46.86206055 C9.82724155 53.29596233 7.86648241 59.73643444 5.9375 66.1875 C5.70297119 66.96931641 5.46844238 67.75113281 5.22680664 68.55664062 C4.17765212 72.05549394 3.1314822 75.55511991 2.09619141 79.05810547 C1.15298683 82.24874055 0.20189017 85.43694696 -0.75 88.625 C-1.04398682 89.62813232 -1.33797363 90.63126465 -1.64086914 91.66479492 C-1.91922607 92.59267822 -2.19758301 93.52056152 -2.484375 94.4765625 C-2.72897461 95.30236816 -2.97357422 96.12817383 -3.22558594 96.97900391 C-4 99 -4 99 -6 101 C-6.99 100.34 -7.98 99.68 -9 99 C-11.21584546 98.55296766 -13.44841961 98.18536758 -15.6875 97.875 C-16.86699219 97.70742187 -18.04648437 97.53984375 -19.26171875 97.3671875 C-20.16535156 97.24601562 -21.06898438 97.12484375 -22 97 C-21.39424881 91.65124303 -20.54568981 86.4414645 -19.36328125 81.1875 C-19.12352318 80.10364517 -19.12352318 80.10364517 -18.87892151 78.99789429 C-18.36101516 76.66429585 -17.83714458 74.33209204 -17.3125 72 C-17.13325989 71.1976593 -16.95401978 70.3953186 -16.76934814 69.56866455 C-14.37811852 58.86817159 -11.87704227 48.20458637 -9.16064453 37.58129883 C-6.93262505 28.8488999 -4.90931306 20.07321489 -2.91552734 11.28466797 C-2.67914551 10.24584473 -2.44276367 9.20702148 -2.19921875 8.13671875 C-1.99127686 7.21592529 -1.78333496 6.29513184 -1.5690918 5.34643555 C-1 3 -1 3 0 0 Z " fill="#674027" transform="translate(444,100)"/>
<path d="M0 0 C6.10456018 4.31974691 7.73078869 9.53137744 10.375 16.3125 C10.83777344 17.42818359 11.30054688 18.54386719 11.77734375 19.69335938 C15.98391709 30.28513434 15.98391709 30.28513434 14 36 C12.1796875 38.58984375 12.1796875 38.58984375 9.875 40.9375 C8.66070312 42.2059375 8.66070312 42.2059375 7.421875 43.5 C6.62265625 44.325 5.8234375 45.15 5 46 C3.698438 47.47046699 2.40569756 48.94882591 1.125 50.4375 C0.09206889 51.63260628 -0.94886289 52.8208747 -2 54 C-2.43387527 54.52286087 -2.86775055 55.04572174 -3.31477356 55.58442688 C-5.49236298 57.41357991 -6.65369361 57.36425468 -9.47143555 57.34057617 C-10.37214279 57.34034958 -11.27285004 57.34012299 -12.20085144 57.33988953 C-13.65410576 57.31666374 -13.65410576 57.31666374 -15.13671875 57.29296875 C-16.62858452 57.28660149 -16.62858452 57.28660149 -18.15058899 57.28010559 C-21.32983375 57.26330153 -24.50844656 57.22564576 -27.6875 57.1875 C-29.84178773 57.17245541 -31.99608538 57.15876662 -34.15039062 57.14648438 C-39.43380967 57.11339244 -44.71685969 57.06317592 -50 57 C-49.07244479 55.73315535 -48.14060522 54.46944706 -47.20703125 53.20703125 C-46.42936401 52.15092651 -46.42936401 52.15092651 -45.63598633 51.07348633 C-44.0942349 49.11943546 -42.48297991 47.4072248 -40.6875 45.6875 C-37.85964389 42.95185659 -35.39104539 40.07601894 -32.9375 37 C-29.15612732 32.29429178 -25.14949138 27.88309402 -21 23.5 C-16.06993684 18.29179692 -11.40094795 13.00674967 -6.96484375 7.3671875 C-4.78872753 4.74546497 -2.4395852 2.37616444 0 0 Z " fill="#ECA612" transform="translate(432,221)"/>
<path d="M0 0 C1.29744141 0.01353516 1.29744141 0.01353516 2.62109375 0.02734375 C3.26175781 0.03894531 3.90242188 0.05054687 4.5625 0.0625 C4.19898437 0.69414063 3.83546875 1.32578125 3.4609375 1.9765625 C-4.65980608 16.42732159 -9.4328385 31.04385402 -13.4375 47.0625 C-28.9475 47.0625 -44.4575 47.0625 -60.4375 47.0625 C-57.89630616 31.81533694 -46.39870213 19.21630051 -34.13671875 10.41015625 C-23.91946885 3.83834085 -12.19329696 -0.16703147 0 0 Z " fill="#9B5F34" transform="translate(99.4375,31.9375)"/>
<path d="M0 0 C18.58925035 -0.80953187 33.07579142 4.65808785 47 17 C47.61359375 17.51949219 48.2271875 18.03898437 48.859375 18.57421875 C52.81067466 22.17207647 55.76668476 26.36167702 58.6875 30.8125 C59.05625244 31.3688916 59.42500488 31.9252832 59.80493164 32.49853516 C63.02140755 37.57840391 64.67165987 42.17914967 67 48 C51.82 47.67 36.64 47.34 21 47 C18.525 38.585 18.525 38.585 16 30 C14.76917894 27.07257657 13.62187236 24.4369836 12.125 21.6875 C11.78911865 21.04216309 11.4532373 20.39682617 11.10717773 19.73193359 C8.34598816 14.48418368 5.39113919 9.34646052 2.34765625 4.2578125 C1 2 1 2 0 0 Z " fill="#9A5E34" transform="translate(404,32)"/>
<path d="M0 0 C24.75 0 49.5 0 75 0 C76.21515501 3.64546502 75.75407579 6.53166861 75.25 10.25 C75.15928223 10.94931641 75.06856445 11.64863281 74.97509766 12.36914062 C73.98760025 19.64887354 72.54732663 26.82040443 71 34 C70.34 34 69.68 34 69 34 C67.66015625 32.63671875 67.66015625 32.63671875 66.0625 30.6875 C62.4631011 26.42465257 58.5813202 22.5384439 54.55688477 18.68237305 C53.33509286 17.49090704 52.16284669 16.24906136 51 15 C51 14.34 51 13.68 51 13 C50.34 13 49.68 13 49 13 C47.44921875 11.35546875 47.44921875 11.35546875 45.6875 9.1875 C43.04673704 6.06609608 40.73288036 3.80988139 37 2 C32.76942243 6.17384569 28.68816381 10.47601091 24.625 14.8125 C23.99078125 15.48603516 23.3565625 16.15957031 22.703125 16.85351562 C15.17912935 24.72255862 15.17912935 24.72255862 8.42431641 33.23364258 C7.95429199 33.81654053 7.48426758 34.39943848 7 35 C6.34 35 5.68 35 5 35 C4.11879301 30.33844921 3.24618747 25.67540256 2.3815918 21.01074219 C2.08611452 19.42338433 1.78827168 17.83646494 1.48803711 16.25 C1.05743977 13.97246038 0.63531301 11.69349073 0.21484375 9.4140625 C0.07843979 8.70255035 -0.05796417 7.99103821 -0.19850159 7.25796509 C-1.11387171 2.22774341 -1.11387171 2.22774341 0 0 Z " fill="#6CC9EC" transform="translate(223,166)"/>
<path d="M0 0 C40.59 0.33 81.18 0.66 123 1 C123 4.3 123 7.6 123 11 C80.43 11 37.86 11 -6 11 C-4.02 7.37 -2.04 3.74 0 0 Z " fill="#684227" transform="translate(303,359)"/>
<path d="M0 0 C1.85881658 3.10993265 3.64278773 6.2640742 5.44035053 9.40980911 C-36.79964947 9.40980911 -79.03964947 9.40980911 -122.55964947 9.40980911 C-122.55964947 6.10980911 -122.55964947 2.80980911 -122.55964947 -0.59019089 C-106.83525214 -0.81326249 -91.11077637 -1.01506691 -75.38576317 -1.188591 C-68.08457143 -1.26969608 -60.78361639 -1.35835047 -53.48274517 -1.46470261 C-47.12025426 -1.55736624 -40.75777313 -1.63594162 -34.39490253 -1.69751191 C-31.02487258 -1.73061643 -27.6552625 -1.77083327 -24.2855463 -1.82791519 C-20.52617971 -1.88805897 -16.76736354 -1.92329517 -13.00764751 -1.95249557 C-11.88699398 -1.97622742 -10.76634045 -1.99995926 -9.61172771 -2.02441025 C-8.07837276 -2.02878349 -8.07837276 -2.02878349 -6.51404095 -2.03324509 C-5.62451072 -2.0443066 -4.73498049 -2.05536812 -3.8184948 -2.06676483 C-1.55964947 -1.59019089 -1.55964947 -1.59019089 0 0 Z " fill="#684227" transform="translate(204.55964946746826,360.5901908874512)"/>
<path d="M0 0 C9.93097534 2.13678773 16.45305219 6.84054579 22.0390625 15.33203125 C25.57388204 21.46767329 25.33039733 26.6343706 26 34 C7.19 34 -11.62 34 -31 34 C-24.25577689 26.13173971 -24.25577689 26.13173971 -21.73828125 23.45703125 C-20.90321045 22.56673218 -20.90321045 22.56673218 -20.05126953 21.65844727 C-19.47747559 21.04928467 -18.90368164 20.44012207 -18.3125 19.8125 C-12.15966599 13.25216628 -6.06240097 6.64389657 0 0 Z " fill="#ECAB10" transform="translate(323,245)"/>
<path d="M0 0 C2.73191981 0.59337178 5.4600447 1.19921283 8.1875 1.8125 C9.34088867 2.0609668 9.34088867 2.0609668 10.51757812 2.31445312 C20.9032971 4.67686989 29.27221304 11.92016864 35.16894531 20.75048828 C36.75774089 23.46474372 38.14914012 26.25092728 39.5 29.08984375 C41.03625126 32.07033121 42.86483552 34.427679 45 37 C45 37.33 45 37.66 45 38 C29.16 38 13.32 38 -3 38 C-1 28 -1 28 -0.37890625 25.0859375 C0.21230656 20.27090533 0.1031393 15.47045457 0.0625 10.625 C0.05798828 9.60277344 0.05347656 8.58054688 0.04882812 7.52734375 C0.037103 5.01816806 0.02069176 2.5091151 0 0 Z " fill="#ECAA10" transform="translate(179,241)"/>
<path d="M0 0 C10.56 0 21.12 0 32 0 C32.96679688 2.3925 33.93359375 4.785 34.9296875 7.25 C42.19147477 25.2071316 49.49351447 43.14339559 57 61 C59.97 61.33 62.94 61.66 66 62 C66 62.33 66 62.66 66 63 C61.55546737 63.65575072 57.63937869 64.11815527 53.80078125 61.5 C51.73423893 59.42127767 49.85417471 57.26969801 48 55 C46.91906727 53.76872171 45.83575208 52.53953066 44.75 51.3125 C44.18539062 50.65636719 43.62078125 50.00023437 43.0390625 49.32421875 C40.4524655 46.37589458 37.79160104 43.50088491 35.125 40.625 C30.03203636 35.12848474 24.9992432 29.58203294 20 24 C18.50043381 22.332943 17.00042947 20.66628005 15.5 19 C14.76652344 18.18273437 14.03304687 17.36546875 13.27734375 16.5234375 C11.69527673 14.77040955 10.10338842 13.02621528 8.50390625 11.2890625 C7.69824219 10.40992188 6.89257812 9.53078125 6.0625 8.625 C5.33160156 7.83351562 4.60070312 7.04203125 3.84765625 6.2265625 C2 4 2 4 0 0 Z " fill="#55B3D9" transform="translate(192,216)"/>
<path d="M0 0 C3.99386332 2.35497671 7.17559028 4.56585722 8.73828125 9.05859375 C9.39240486 14.46546361 9.41427939 18.68245467 6.98828125 23.62109375 C4.87840822 25.90678953 3.49418366 26.80222647 0.73828125 28.05859375 C0.79048828 29.84716797 0.79048828 29.84716797 0.84375 31.671875 C0.87188878 33.23826717 0.89918885 34.80467456 0.92578125 36.37109375 C0.95091797 37.15677734 0.97605469 37.94246094 1.00195312 38.75195312 C1.01162109 39.50927734 1.02128906 40.26660156 1.03125 41.046875 C1.04696045 41.74337158 1.0626709 42.43986816 1.07885742 43.1574707 C0.63419186 45.63962893 -0.31439592 46.51052401 -2.26171875 48.05859375 C-4.19921875 48.45703125 -4.19921875 48.45703125 -6.26171875 48.43359375 C-7.28265625 48.44519531 -7.28265625 48.44519531 -8.32421875 48.45703125 C-10.26171875 48.05859375 -10.26171875 48.05859375 -11.99609375 47.0234375 C-13.96117548 43.97270876 -13.53350957 40.75639681 -13.51171875 37.24609375 C-13.58045442 31.74063689 -13.58045442 31.74063689 -15.8046875 26.8125 C-17.63639407 25.2887931 -17.63639407 25.2887931 -19.5703125 24.19921875 C-21.72590928 22.74555995 -22.34115395 21.47002446 -23.26171875 19.05859375 C-23.89626217 12.60740231 -23.01991589 9.34038432 -19.26171875 4.05859375 C-13.79070264 -1.01210411 -7.11480513 -2.96143012 0 0 Z " fill="#3B2C23" transform="translate(260.26171875,311.94140625)"/>
<path d="M0 0 C2.73803435 1.36901717 2.7559617 2.70681981 3.75 5.5625 C7.61596787 15.48939919 13.56731634 21.39256196 23.1328125 26.03515625 C24.73706653 26.73336397 26.36611759 27.3742578 28 28 C25.02788838 30.32478988 21.94083884 32.21993313 18.6875 34.125 C9.70794797 39.83599509 5.34434657 47.05004965 2 57 C0.27712542 54.41568813 -0.99384989 51.98372548 -2.3125 49.1875 C-7.74772724 38.41075633 -15.7270936 33.2273399 -27 29 C-26.43925781 28.72542969 -25.87851563 28.45085937 -25.30078125 28.16796875 C-13.74885643 22.30374885 -5.95626956 16.22683028 -1 4 C-0.63552498 2.67484082 -0.29028967 1.34336175 0 0 Z " fill="#F5C824" transform="translate(148,123)"/>
<path d="M0 0 C9.72575232 8.1047936 18.09942172 17.12427715 26 27 C9.5 27 -7 27 -24 27 C-20.58868577 23.0201334 -17.19967513 19.07007401 -13.6875 15.1875 C-12.92953125 14.34832031 -12.1715625 13.50914062 -11.390625 12.64453125 C-10.20726562 11.33548828 -10.20726562 11.33548828 -9 10 C-7.31207615 8.12538155 -5.62456029 6.25039564 -3.9375 4.375 C-2.625 2.91666667 -1.3125 1.45833333 0 0 Z " fill="#6CC7EB" transform="translate(260,180)"/>
<path d="M0 0 C0.66 0.33 1.32 0.66 2 1 C1.39929688 1.4237793 0.79859375 1.84755859 0.1796875 2.28417969 C-2.38169542 4.38212595 -4.21869135 6.19810627 -6 9 C-6.29293996 13.6422016 -5.1822426 17.78042461 -4 22.25 C-3.45641393 24.56725892 -2.91466684 26.8849502 -2.375 29.203125 C-2.11460937 30.22051758 -1.85421875 31.23791016 -1.5859375 32.28613281 C-1 35 -1 35 -1 39 C-11.56 39 -22.12 39 -33 39 C-33.33 40.32 -33.66 41.64 -34 43 C-34.33 42.67 -34.66 42.34 -35 42 C-35 32.39774564 -26.74836008 26.6801841 -20.41015625 20.3125 C-17.96566345 17.87022875 -15.51433147 15.43490025 -13.0625 13 C-11.79338627 11.7359115 -10.52450411 10.47159044 -9.25585938 9.20703125 C-6.1732368 6.13533276 -3.08749572 3.06679992 0 0 Z " fill="#379CCD" transform="translate(221,168)"/>
<path d="M0 0 C4.91501563 4.04123508 9.40691207 8.36575657 13.87573242 12.89526367 C16.54147184 15.58292453 19.24990619 18.16309332 22.125 20.625 C25.13629586 23.21857987 28.06653641 25.87610888 30.9375 28.625 C31.68902344 29.33914062 32.44054687 30.05328125 33.21484375 30.7890625 C35.19639015 33.24323157 35.657301 34.89938998 36 38 C31.99679847 38.95377184 28.27788253 39.1157616 24.16796875 39.09765625 C22.87568359 39.09443359 21.58339844 39.09121094 20.25195312 39.08789062 C18.89713474 39.07953665 17.54231703 39.07107172 16.1875 39.0625 C14.81315265 39.05748 13.43880355 39.05291797 12.06445312 39.04882812 C8.70959076 39.03705668 5.35481779 39.02061283 2 39 C2.44057309 36.91690199 2.88133532 34.83384382 3.32299805 32.75097656 C3.69185675 30.99624668 4.05527903 29.24036547 4.41333008 27.48339844 C5.15543773 23.86042549 5.9094382 20.30680119 6.95703125 16.7578125 C7.9302064 13.42570852 7.9302064 13.42570852 8 10 C6.06193117 7.11127952 3.78961155 5.05478704 1 3 C0.34 3.99 -0.32 4.98 -1 6 C-1.042721 4.33388095 -1.04063832 2.66617115 -1 1 C-0.67 0.67 -0.34 0.34 0 0 Z " fill="#369BCB" transform="translate(299,168)"/>
<path d="M0 0 C8.25 0 16.5 0 25 0 C25.04589918 6.90527663 25.08572898 13.81002443 25.10986328 20.71533203 C25.11992384 23.06463413 25.13357373 25.41392369 25.15087891 27.76318359 C25.17512452 31.13902885 25.18648259 34.5147086 25.1953125 37.890625 C25.20563507 38.94179504 25.21595764 39.99296509 25.22659302 41.07598877 C25.22674408 42.05670349 25.22689514 43.03741821 25.22705078 44.04785156 C25.231492 44.90944885 25.23593323 45.77104614 25.24050903 46.65875244 C25 49 25 49 23 53 C23 36.17 23 19.34 23 2 C15.74 2 8.48 2 1 2 C1 45.89 1 89.78 1 135 C0.67 135 0.34 135 0 135 C0 90.45 0 45.9 0 0 Z " fill="#B76B38" transform="translate(39,297)"/>
<path d="M0 0 C26.07 0 52.14 0 79 0 C79.04125 6.868125 79.0825 13.73625 79.125 20.8125 C79.14320801 22.9778833 79.16141602 25.1432666 79.18017578 27.37426758 C79.18601665 29.08935294 79.19111317 30.80444108 79.1953125 32.51953125 C79.20554443 33.41103882 79.21577637 34.30254639 79.22631836 35.22106934 C79.22668091 36.49959778 79.22668091 36.49959778 79.22705078 37.80395508 C79.231492 38.54341873 79.23593323 39.28288239 79.24050903 40.04475403 C79 42 79 42 77 45 C77 30.81 77 16.62 77 2 C51.59 2 26.18 2 0 2 C0 1.34 0 0.68 0 0 Z " fill="#FCDE24" transform="translate(215,297)"/>
<path d="M0 0 C3.65477033 1.3259685 4.24202002 3.21962656 5.875 6.6796875 C6.38675781 7.72640625 6.89851563 8.773125 7.42578125 9.8515625 C8.53427895 12.8532676 8.97621331 14.77443399 8.5625 17.9296875 C6.5625 19.9296875 6.5625 19.9296875 2.9375 20.0546875 C1.82375 20.0134375 0.71 19.9721875 -0.4375 19.9296875 C-1.44991247 18.04045352 -2.44697425 16.14298806 -3.4375 14.2421875 C-3.994375 13.18644531 -4.55125 12.13070312 -5.125 11.04296875 C-6.41469098 7.98379103 -6.86766297 6.19319053 -6.4375 2.9296875 C-4.30019703 0.55490642 -3.21124033 -0.09263193 0 0 Z " fill="#F4CB23" transform="translate(306.4375,107.0703125)"/>
<path d="M0 0 C3 0.25 3 0.25 5 2.25 C6.86024334 7.78479807 7.50842413 13.45396496 7 19.25 C4 21.25 4 21.25 1.4375 21 C-1 20.25 -1 20.25 -3 18.25 C-4.71299969 13.05813058 -5.44499572 7.70119761 -5 2.25 C-3 0.25 -3 0.25 0 0 Z " fill="#F4CB23" transform="translate(339,137.75)"/>
<path d="M0 0 C3.90411118 1.30137039 4.77520821 3.10357032 7.125 6.4375 C7.82882812 7.42621094 8.53265625 8.41492188 9.2578125 9.43359375 C11 12 11 12 12 14 C4.41 14 -3.18 14 -11 14 C-7.39758945 9.19678593 -3.87208829 4.55539799 0 0 Z " fill="#694126" transform="translate(456,265)"/>
<path d="M0 0 C2.375 0.875 2.375 0.875 4.375 2.875 C4.58181917 7.88790267 3.80530034 13.07716748 0.375 16.875 C-2.125 17.375 -2.125 17.375 -4.625 16.875 C-6.28515625 15.65234375 -6.28515625 15.65234375 -7.625 13.875 C-8.04928142 9.25418957 -7.40752067 5.07672817 -4.875 1.1875 C-2.625 -0.125 -2.625 -0.125 0 0 Z " fill="#F4CC23" transform="translate(373.625,161.125)"/>
<path d="M0 0 C0.33 0 0.66 0 1 0 C2.19388403 26.9576474 2.19388403 26.9576474 2 39 C1.67 39 1.34 39 1 39 C-1.62393805 32.06160254 -1.2588731 25.14890332 -1.1875 17.8125 C-1.18685547 16.54212891 -1.18621094 15.27175781 -1.18554688 13.96289062 C-1.13686809 3.73493772 -1.13686809 3.73493772 0 0 Z " fill="#54432A" transform="translate(17,397)"/>
<path d="M0 0 C3.09011944 2.58265114 4.21627918 5.48956659 5.6875 9.1875 C6.34298828 10.81751953 6.34298828 10.81751953 7.01171875 12.48046875 C7.33785156 13.31191406 7.66398438 14.14335937 8 15 C10.97 15.33 13.94 15.66 17 16 C17 16.33 17 16.66 17 17 C12.36300061 17.68414745 8.56358567 18.08716086 4.58984375 15.32421875 C1.58598851 12.34217008 -0.64932646 10.05202061 -2 6 C-0.68 6.33 0.64 6.66 2 7 C1.34 4.69 0.68 2.38 0 0 Z " fill="#52BEE4" transform="translate(241,262)"/>
<path d="M0 0 C0.33 0 0.66 0 1 0 C1.25523438 1.09054688 1.25523438 1.09054688 1.515625 2.203125 C3.30209735 9.61508474 5.48631722 16.80346656 8 24 C7.34 24.66 6.68 25.32 6 26 C4.78951775 22.79987452 3.61086458 19.58890147 2.4375 16.375 C2.09525391 15.47136719 1.75300781 14.56773438 1.40039062 13.63671875 C-0.37593847 8.72041398 -1.58203582 5.2042927 0 0 Z " fill="#4B3A28" transform="translate(17,90)"/>
<path d="M0 0 C0.66 0 1.32 0 2 0 C1.35346673 6.95023264 -0.86027248 13.38177303 -3 20 C-3.33 20 -3.66 20 -4 20 C-4.66268329 12.87615459 -2.25388064 6.69120815 0 0 Z " fill="#51402D" transform="translate(473,155)"/>
<path d="M0 0 C0.66 0.66 1.32 1.32 2 2 C1.84450045 4.95449137 1.13515517 6.77269358 -0.375 9.3125 C-4.60272038 12.03032025 -9.11031542 11.30349766 -14 11 C-14 10.67 -14 10.34 -14 10 C-10.7 9.67 -7.4 9.34 -4 9 C-3.525625 7.700625 -3.05125 6.40125 -2.5625 5.0625 C-1.125 1.125 -1.125 1.125 0 0 Z " fill="#4BBFE6" transform="translate(277,268)"/>
<path d="M0 0 C0.66 0 1.32 0 2 0 C2.33 2.31 2.66 4.62 3 7 C0.36 7 -2.28 7 -5 7 C-4.21654285 5.82780457 -3.42297164 4.66236332 -2.625 3.5 C-2.18414062 2.8503125 -1.74328125 2.200625 -1.2890625 1.53125 C-0.65097656 0.77328125 -0.65097656 0.77328125 0 0 Z " fill="#653D24" transform="translate(46,272)"/>
<path d="M0 0 C0.99 0.33 1.98 0.66 3 1 C2.50628906 1.54269531 2.01257812 2.08539063 1.50390625 2.64453125 C0.86324219 3.35996094 0.22257812 4.07539062 -0.4375 4.8125 C-1.07558594 5.52019531 -1.71367188 6.22789063 -2.37109375 6.95703125 C-4.19086012 8.99896152 -4.19086012 8.99896152 -5 12 C-5.99 12 -6.98 12 -8 12 C-6.49087042 7.01987239 -3.44338151 3.75740058 0 0 Z " fill="#463726" transform="translate(37,42)"/>
<path d="M0 0 C2.47186455 2.96346786 3.66248361 5.54041689 4.6875 9.25 C4.93886719 10.14203125 5.19023438 11.0340625 5.44921875 11.953125 C5.72185547 12.96632812 5.72185547 12.96632812 6 14 C5.34 14.66 4.68 15.32 4 16 C3.32320342 14.274773 2.65898 12.54461061 2 10.8125 C1.443125 9.36810547 1.443125 9.36810547 0.875 7.89453125 C0.02363228 5.07817642 -0.17072647 2.91835561 0 0 Z " fill="#4C3D29" transform="translate(28,125)"/>
<path d="M0 0 C1.1216629 4.48665161 0.8288737 5.14210186 -1.1875 9.0625 C-1.82751953 10.34833984 -1.82751953 10.34833984 -2.48046875 11.66015625 C-4.06677186 14.10281836 -5.57839896 15.41844043 -8 17 C-7.67 14.69 -7.34 12.38 -7 10 C-5.68 10 -4.36 10 -3 10 C-2.01 6.7 -1.02 3.4 0 0 Z " fill="#251A20" transform="translate(147,123)"/>
<path d="M0 0 C0.66 0 1.32 0 2 0 C2.05416188 1.60379341 2.09286638 3.20811406 2.125 4.8125 C2.14820313 5.70582031 2.17140625 6.59914063 2.1953125 7.51953125 C2 10 2 10 0 13 C-1.01097258 8.70336653 -2.04130598 4.08261196 0 0 Z " fill="#54422F" transform="translate(493,84)"/>
<path d="M0 0 C1.66666667 1.66666667 3.33333333 3.33333333 5 5 C5.99 3.35 6.98 1.7 8 0 C9 2 9 2 8.22265625 4.3828125 C7.83980469 5.28773438 7.45695313 6.19265625 7.0625 7.125 C6.68222656 8.03507813 6.30195313 8.94515625 5.91015625 9.8828125 C5.45962891 10.93082031 5.45962891 10.93082031 5 12 C3.20931427 9.3139714 2.33944209 7.3373411 1.375 4.3125 C1.11460937 3.50425781 0.85421875 2.69601563 0.5859375 1.86328125 C0.39257812 1.24839844 0.19921875 0.63351563 0 0 Z " fill="#F6E426" transform="translate(145,168)"/>
<path d="M0 0 C-3.33333333 2.66666667 -6.66666667 5.33333333 -10 8 C-9.64505955 5.37344067 -9.27538036 3.42031739 -7.8125 1.1875 C-5.20638339 -0.51995571 -3.0400645 -0.20267097 0 0 Z " fill="#352822" transform="translate(250,313)"/>
<path d="M0 0 C3.15330554 0.60694155 5.18888867 1.6416665 7.75 3.5625 C8.67039062 4.24505859 8.67039062 4.24505859 9.609375 4.94140625 C10.29773438 5.46541016 10.29773438 5.46541016 11 6 C10.01 6.33 9.02 6.66 8 7 C5.5 5.6875 5.5 5.6875 3 4 C2.01 3.34 1.02 2.68 0 2 C0 1.34 0 0.68 0 0 Z " fill="#4C3D27" transform="translate(450,25)"/>
<path d="M0 0 C5.29500913 1.36157378 7.23745533 4.60343955 10 9 C9.01 9.495 9.01 9.495 8 10 C7.59007812 9.50628906 7.18015625 9.01257812 6.7578125 8.50390625 C6.21898437 7.86324219 5.68015625 7.22257812 5.125 6.5625 C4.59132813 5.92441406 4.05765625 5.28632812 3.5078125 4.62890625 C2.0777243 2.89194996 2.0777243 2.89194996 0 2 C0 1.34 0 0.68 0 0 Z " fill="#35281A" transform="translate(462,34)"/>
<path d="M0 0 C0.66 0.66 1.32 1.32 2 2 C-0.66666667 4.66666667 -3.33333333 7.33333333 -6 10 C-6.66 9.67 -7.32 9.34 -8 9 C-5.36 6.03 -2.72 3.06 0 0 Z " fill="#79D5F4" transform="translate(260,180)"/>
<path d="M0 0 C1.25541557 3.76624671 0.37061958 5.37188934 -1 9 C-1.99 8.67 -2.98 8.34 -4 8 C-4 7.01 -4 6.02 -4 5 C-3.34 5 -2.68 5 -2 5 C-2 4.01 -2 3.02 -2 2 C-1.34 2 -0.68 2 0 2 C0 1.34 0 0.68 0 0 Z " fill="#5F4C37" transform="translate(487,114)"/>
<path d="M0 0 C0.6875 1.75 0.6875 1.75 1 4 C-0.3125 6.25 -0.3125 6.25 -2 8 C-2.66 8 -3.32 8 -4 8 C-2.87548273 5.0280615 -1.77706209 2.66559313 0 0 Z " fill="#4B3A27" transform="translate(22,263)"/>
<path d="M0 0 C0.99 0 1.98 0 3 0 C3 0.66 3 1.32 3 2 C5.97 2.495 5.97 2.495 9 3 C9 3.33 9 3.66 9 4 C1.25 3.25 1.25 3.25 -1 1 C-0.67 0.67 -0.34 0.34 0 0 Z " fill="#241A27" transform="translate(188,241)"/>
<path d="" fill="#000000" transform="translate(0,0)"/>
<path d="" fill="#000000" transform="translate(0,0)"/>
<path d="" fill="#000000" transform="translate(0,0)"/>
<path d="" fill="#000000" transform="translate(0,0)"/>
<path d="" fill="#7F7F7F" transform="translate(0,0)"/>
<path d="" fill="#000000" transform="translate(0,0)"/>
<path d="" fill="#7F7F7F" transform="translate(0,0)"/>
<path d="" fill="#000000" transform="translate(0,0)"/>
<path d="" fill="#7F7F7F" transform="translate(0,0)"/>
<path d="" fill="#555555" transform="translate(0,0)"/>
<path d="" fill="#000000" transform="translate(0,0)"/>
<path d="" fill="#7F7F3F" transform="translate(0,0)"/>
<path d="" fill="#666633" transform="translate(0,0)"/>
<path d="" fill="#7F7F7F" transform="translate(0,0)"/>
<path d="" fill="#FF0000" transform="translate(0,0)"/>
<path d="" fill="#996666" transform="translate(0,0)"/>
<path d="" fill="#7F7F7F" transform="translate(0,0)"/>
<path d="" fill="#FF0000" transform="translate(0,0)"/>
<path d="" fill="#FF0000" transform="translate(0,0)"/>
<path d="" fill="#FF0000" transform="translate(0,0)"/>
<path d="" fill="#7F7F3F" transform="translate(0,0)"/>
</svg>
